# xmcd
#
# Track frame offsets:
#	150
#	17063
#	32189
#	47473
#	61099
#	76563
#	93134
#	107419
#	117153
#	138805
#	153418
#	177545
#	188357
#
# Disc length: 2904 seconds
#
# Revision: 1
# Processed by: cddbd v1.5.2PL0 Copyright (c) Steve Scherf et al.
# Submitted via: audiograbber 1.83.01
#
DISCID=8b0b560d
DTITLE=Tri Yann - Triple BestOf - CD2
DYEAR=2008
DGENRE=Celtic
TTITLE0=La jument de Michao
TTITLE1=Princes qu'en mains tenrz
TTITLE2=Le mariage insolite de Marie la bretonne
TTITLE3=Complainte gallaise
TTITLE4=Quand la bergère
TTITLE5=Kiss the children for me Mary
TTITLE6=La découverte ou l'ignorance
TTITLE7=Pitié et rondoise
TTITLE8=Hanter dro macabre
TTITLE9=Si mort a mors
TTITLE10=Suite écossaise
TTITLE11=Kan peoc'h
TTITLE12=O'Carolan's devotion - Irish dances
EXTD=
EXTT0=
EXTT1=
EXTT2=
EXTT3=
EXTT4=
EXTT5=
EXTT6=
EXTT7=
EXTT8=
EXTT9=
EXTT10=
EXTT11=
EXTT12=
PLAYORDER=
